<svg width="88" height="92" viewBox="0 0 88 92" fill="none" xmlns="http://www.w3.org/2000/svg">
<path d="M73.59 24.3417H55V29.7467H73.6633L73.59 24.3417ZM69.6667 61.525C68.2564 62.5019 66.591 62.9975 64.9 62.9433C63.7807 63.0653 62.6493 62.9445 61.5768 62.5883C60.5042 62.2321 59.5135 61.6483 58.6667 60.8733C57.101 59.0175 56.286 56.5986 56.3933 54.1267H80.6667C80.8416 51.5528 80.6313 48.9661 80.0433 46.46C79.4745 44.0758 78.4793 41.8256 77.11 39.8283C75.7318 37.891 73.9517 36.3052 71.9033 35.19C69.6243 34.0152 67.1107 33.424 64.57 33.465C62.1805 33.4467 59.8117 33.929 57.6033 34.8833C55.5812 35.7746 53.7489 37.0777 52.2133 38.7167C50.6821 40.3884 49.4964 42.3718 48.73 44.5433C47.9076 46.8876 47.4976 49.3681 47.52 51.865C47.4823 54.3973 47.8797 56.9162 48.6933 59.3017C49.3844 61.4619 50.4815 63.4559 51.92 65.1667C53.4083 66.8463 55.2375 68.1561 57.2733 69C59.5434 69.9042 61.9578 70.3466 64.3867 70.3033C67.7945 70.4144 71.1592 69.4817 74.0667 67.62C77.0033 65.4383 79.1176 62.2516 80.0433 58.6117H71.94C71.5062 59.8158 70.7079 60.8389 69.6667 61.525ZM57.09 45.7317C57.3754 44.7759 57.8491 43.8933 58.4806 43.1407C59.1121 42.388 59.8875 41.782 60.7567 41.3617C61.9078 40.82 63.1614 40.5578 64.4233 40.595C65.3349 40.5136 66.2526 40.6393 67.1133 40.9635C67.9741 41.2878 68.7576 41.8028 69.41 42.4733C70.6559 44.0677 71.4554 45.9915 71.72 48.0317H56.5033C56.5627 47.2527 56.6978 46.482 56.9067 45.7317H57.09ZM37.6933 43.8917C39.5595 43.0792 41.1811 41.7548 42.3867 40.0583C43.4948 38.2567 44.0453 36.1419 43.9633 34.0017C44.0352 32.0499 43.6712 30.1074 42.9 28.3283C42.2522 26.787 41.2122 25.4611 39.8933 24.495C38.4951 23.4906 36.9072 22.8109 35.2367 22.5017C33.2597 22.0682 31.2432 21.8625 29.2233 21.8883H7.33334V70.1117H29.7C31.7412 70.1132 33.7743 69.8427 35.75 69.3067C37.6227 68.8002 39.397 67.9571 40.9933 66.815C42.5397 65.6946 43.7989 64.1939 44.66 62.445C45.613 60.4892 46.0796 58.314 46.0167 56.12C46.0861 53.4012 45.3567 50.7254 43.9267 48.4533C42.3888 46.1684 40.1079 44.5468 37.51 43.8917H37.6933ZM17.49 30.13H26.9867C27.8591 30.1289 28.7301 30.2058 29.59 30.36C30.3818 30.4827 31.1422 30.7694 31.8267 31.2033C32.4879 31.5944 33.0238 32.1812 33.3667 32.89C33.7913 33.7399 33.9937 34.692 33.9533 35.65C34.0217 36.4751 33.901 37.3053 33.6013 38.0719C33.3016 38.8385 32.8315 39.5195 32.23 40.0583C30.9178 41.0015 29.3476 41.4724 27.7567 41.4H17.49V30.13ZM35.2367 58.65C34.86 59.4313 34.2903 60.093 33.5867 60.5667C32.8545 61.0428 32.0477 61.3802 31.2033 61.5633C30.2649 61.7829 29.3049 61.8859 28.3433 61.87H17.3433V48.645H28.3433C30.231 48.5586 32.0951 49.1096 33.66 50.2167C34.367 50.88 34.9146 51.708 35.2586 52.6336C35.6026 53.5593 35.7333 54.5567 35.64 55.545C35.7391 56.5987 35.601 57.6621 35.2367 58.65Z" fill="white"/>
</svg>
