<svg width="90" height="94" viewBox="0 0 90 94" fill="none" xmlns="http://www.w3.org/2000/svg">
<path d="M65.025 21.385C64.135 21.385 63.265 21.6606 62.5249 22.1771C61.7849 22.6935 61.2081 23.4276 60.8675 24.2864C60.5269 25.1452 60.4378 26.0902 60.6115 27.0019C60.7851 27.9136 61.2137 28.7511 61.843 29.4084C62.4724 30.0657 63.2742 30.5133 64.1471 30.6947C65.02 30.876 65.9248 30.7829 66.7471 30.4272C67.5693 30.0715 68.2721 29.4691 68.7666 28.6962C69.2611 27.9232 69.525 27.0146 69.525 26.085C69.525 24.8385 69.0509 23.643 68.207 22.7616C67.3631 21.8802 66.2185 21.385 65.025 21.385ZM82.275 30.8633C82.2021 27.6136 81.6193 24.3985 80.55 21.3458C79.5965 18.7339 78.1124 16.3688 76.2 14.4133C74.3431 12.4057 72.0733 10.8655 69.5625 9.90915C66.6475 8.75828 63.5657 8.13572 60.45 8.06831C56.475 7.83331 55.2 7.83331 45 7.83331C34.8 7.83331 33.525 7.83331 29.55 8.06831C26.4343 8.13572 23.3525 8.75828 20.4375 9.90915C17.9313 10.8752 15.6635 12.4141 13.8 14.4133C11.8778 16.3528 10.4032 18.7234 9.4875 21.3458C8.3856 24.3904 7.78954 27.6092 7.725 30.8633C7.5 35.015 7.5 36.3466 7.5 47C7.5 57.6533 7.5 58.985 7.725 63.1366C7.78954 66.3908 8.3856 69.6095 9.4875 72.6541C10.4032 75.2766 11.8778 77.6472 13.8 79.5866C15.6635 81.5859 17.9313 83.1248 20.4375 84.0908C23.3525 85.2417 26.4343 85.8642 29.55 85.9316C33.525 86.1666 34.8 86.1666 45 86.1666C55.2 86.1666 56.475 86.1666 60.45 85.9316C63.5657 85.8642 66.6475 85.2417 69.5625 84.0908C72.0733 83.1345 74.3431 81.5942 76.2 79.5866C78.1209 77.6384 79.6063 75.2712 80.55 72.6541C81.6193 69.6015 82.2021 66.3863 82.275 63.1366C82.275 58.985 82.5 57.6533 82.5 47C82.5 36.3466 82.5 35.015 82.275 30.8633ZM75.525 62.6666C75.4977 65.1528 75.0666 67.6161 74.25 69.9516C73.6513 71.6562 72.6895 73.1963 71.4375 74.4558C70.2212 75.7503 68.7496 76.7527 67.125 77.3933C64.8889 78.2462 62.5304 78.6965 60.15 78.725C56.4 78.9208 55.0125 78.96 45.15 78.96C35.2875 78.96 33.9 78.96 30.15 78.725C27.6783 78.7733 25.2172 78.3758 22.875 77.55C21.3217 76.8766 19.9176 75.8767 18.75 74.6125C17.5053 73.3542 16.5557 71.8128 15.975 70.1083C15.0595 67.7393 14.5517 65.2201 14.475 62.6666C14.475 58.75 14.25 57.3008 14.25 47C14.25 36.6991 14.25 35.25 14.475 31.3333C14.4918 28.7916 14.9361 26.2728 15.7875 23.8916C16.4477 22.2385 17.461 20.7648 18.75 19.5833C19.8893 18.2366 21.2973 17.1671 22.875 16.45C25.1608 15.5885 27.57 15.1382 30 15.1183C33.75 15.1183 35.1375 14.8833 45 14.8833C54.8625 14.8833 56.25 14.8833 60 15.1183C62.3804 15.1468 64.7389 15.5971 66.975 16.45C68.6791 17.1105 70.2086 18.1845 71.4375 19.5833C72.6664 20.7864 73.6266 22.2573 74.25 23.8916C75.0834 26.2766 75.5148 28.7945 75.525 31.3333C75.7125 35.25 75.75 36.6991 75.75 47C75.75 57.3008 75.7125 58.75 75.525 62.6666ZM45 26.9075C41.1968 26.9152 37.4811 28.1002 34.3225 30.3127C31.1638 32.5252 28.7039 35.6659 27.2536 39.338C25.8033 43.0101 25.4277 47.0488 26.1742 50.9438C26.9207 54.8388 28.7559 58.4152 31.4478 61.2213C34.1397 64.0274 37.5675 65.9371 41.2982 66.7092C45.0289 67.4813 48.895 67.0811 52.408 65.5592C55.921 64.0373 58.9233 61.462 61.0355 58.1587C63.1477 54.8554 64.275 50.9722 64.275 47C64.28 44.3566 63.7845 41.7384 62.8172 39.2957C61.8498 36.8531 60.4296 34.6343 58.6383 32.767C56.8469 30.8997 54.7198 29.4207 52.3792 28.4151C50.0387 27.4095 47.5308 26.8971 45 26.9075ZM45 60.0425C42.5302 60.0425 40.1159 59.2775 38.0623 57.8444C36.0088 56.4113 34.4082 54.3743 33.4631 51.9911C32.5179 49.6079 32.2706 46.9855 32.7524 44.4555C33.2343 41.9255 34.4236 39.6016 36.17 37.7775C37.9164 35.9535 40.1415 34.7113 42.5638 34.2081C44.9861 33.7048 47.497 33.9631 49.7788 34.9503C52.0606 35.9374 54.0108 37.6091 55.383 39.754C56.7551 41.8988 57.4875 44.4204 57.4875 47C57.4875 48.7127 57.1645 50.4087 56.5369 51.9911C55.9094 53.5735 54.9896 55.0113 53.83 56.2224C52.6704 57.4335 51.2938 58.3942 49.7788 59.0497C48.2637 59.7051 46.6399 60.0425 45 60.0425Z" fill="white"/>
</svg>
