<svg width="84" height="54" viewBox="0 0 84 54" fill="none" xmlns="http://www.w3.org/2000/svg">
<path d="M75.625 3.45857H54.5V9.33357H75.7083L75.625 3.45857ZM71.1667 43.8752C69.5641 44.9371 67.6716 45.4757 65.75 45.4169C64.478 45.5495 63.1924 45.4181 61.9736 45.031C60.7547 44.6438 59.6289 44.0092 58.6667 43.1669C56.8875 41.1497 55.9613 38.5205 56.0833 35.8336H83.6667C83.8655 33.0359 83.6265 30.2243 82.9583 27.5002C82.312 24.9087 81.181 22.4628 79.625 20.2919C78.0588 18.1861 76.036 16.4624 73.7083 15.2502C71.1185 13.9733 68.2621 13.3306 65.375 13.3752C62.6596 13.3553 59.9678 13.8796 57.4583 14.9169C55.1604 15.8856 53.0783 17.302 51.3333 19.0836C49.5933 20.9007 48.2459 23.0566 47.375 25.4169C46.4404 27.965 45.9746 30.6612 46 33.3752C45.9571 36.1278 46.4087 38.8656 47.3333 41.4586C48.1187 43.8066 49.3653 45.974 51 47.8336C52.6913 49.6592 54.7699 51.0829 57.0833 52.0002C59.6629 52.9831 62.4066 53.4639 65.1667 53.4169C69.0392 53.5376 72.8627 52.5238 76.1667 50.5002C79.5038 48.1289 81.9064 44.665 82.9583 40.7086H73.75C73.257 42.0175 72.3499 43.1294 71.1667 43.8752ZM56.875 26.7086C57.1993 25.6697 57.7376 24.7104 58.4552 23.8923C59.1729 23.0741 60.0539 22.4154 61.0417 21.9586C62.3498 21.3698 63.7743 21.0849 65.2083 21.1252C66.2442 21.0368 67.287 21.1734 68.2651 21.5258C69.2433 21.8782 70.1336 22.4381 70.875 23.1669C72.2908 24.9 73.1993 26.991 73.5 29.2086H56.2083C56.2758 28.3618 56.4293 27.5242 56.6667 26.7086H56.875ZM34.8333 24.7086C36.954 23.8255 38.7967 22.3859 40.1667 20.5419C41.4259 18.5836 42.0515 16.285 41.9583 13.9586C42.04 11.8371 41.6263 9.7257 40.75 7.7919C40.0138 6.11656 38.832 4.67534 37.3333 3.62523C35.7444 2.53346 33.94 1.79466 32.0417 1.45857C29.7951 0.987374 27.5036 0.763818 25.2083 0.791902H0.333328V53.2086H25.75C28.0695 53.2102 30.3798 52.9162 32.625 52.3336C34.7531 51.783 36.7692 50.8666 38.5833 49.6252C40.3406 48.4074 41.7715 46.7762 42.75 44.8752C43.8329 42.7494 44.3631 40.385 44.2917 38.0002C44.3706 35.045 43.5417 32.1365 41.9167 29.6669C40.1691 27.1833 37.5772 25.4207 34.625 24.7086H34.8333ZM11.875 9.75024H22.6667C23.6581 9.74901 24.6478 9.83265 25.625 10.0002C26.5248 10.1336 27.3889 10.4452 28.1667 10.9169C28.9181 11.342 29.527 11.9798 29.9167 12.7502C30.3992 13.6741 30.6292 14.709 30.5833 15.7502C30.661 16.6471 30.5238 17.5495 30.1833 18.3827C29.8427 19.216 29.3085 19.9562 28.625 20.5419C27.1338 21.567 25.3495 22.0789 23.5417 22.0002H11.875V9.75024ZM32.0417 40.7502C31.6136 41.5994 30.9662 42.3187 30.1667 42.8336C29.3346 43.3511 28.4178 43.7178 27.4583 43.9169C26.3919 44.1556 25.301 44.2675 24.2083 44.2502H11.7083V29.8752H24.2083C26.3534 29.7813 28.4717 30.3803 30.25 31.5836C31.0534 32.3045 31.6757 33.2045 32.0666 34.2107C32.4575 35.2169 32.606 36.301 32.5 37.3752C32.6126 38.5206 32.4557 39.6764 32.0417 40.7502V40.7502Z" fill="white"/>
</svg>
