<svg width="84" height="84" viewBox="0 0 84 84" fill="none" xmlns="http://www.w3.org/2000/svg">
<path d="M54.8039 0.333496H29.2396C5.88879 0.333496 0.333336 5.88895 0.333336 29.1962V54.7606C0.333336 78.1111 5.84559 83.6668 29.1961 83.6668H54.7604C78.1112 83.6668 83.6667 78.1546 83.6667 54.8038V29.2397C83.6667 5.88895 78.1544 0.333496 54.8039 0.333496ZM67.6075 59.7952H61.5313C59.231 59.7952 58.5365 57.9288 54.4133 53.8056C50.8107 50.3335 49.2917 49.8994 48.3802 49.8994C47.1216 49.8994 46.7742 50.2465 46.7742 51.9827V57.4515C46.7742 58.9272 46.2969 59.7952 42.4341 59.7952C38.6857 59.5433 35.0508 58.4047 31.8287 56.4729C28.6065 54.5411 25.8894 51.8715 23.901 48.684C19.1807 42.8087 15.8963 35.9129 14.3091 28.5452C14.3091 27.6337 14.6563 26.809 16.3925 26.809H22.4688C24.0313 26.809 24.5956 27.5035 25.2031 29.1095C28.1544 37.79 33.1893 45.3421 35.2292 45.3421C36.0104 45.3421 36.3575 44.995 36.3575 43.0418V34.1007C36.0971 30.021 33.9271 29.6736 33.9271 28.1981C33.9557 27.8088 34.1348 27.4459 34.4266 27.1866C34.7183 26.9273 35.0996 26.7918 35.4896 26.809H45.0383C46.3404 26.809 46.7742 27.4601 46.7742 29.0226V41.0887C46.7742 42.3908 47.3385 42.8247 47.7292 42.8247C48.5104 42.8247 49.118 42.3908 50.5503 40.9585C53.6281 37.2051 56.143 33.0234 58.0156 28.5452C58.2068 28.0064 58.5691 27.5449 59.0472 27.2314C59.5253 26.9179 60.0929 26.7695 60.6633 26.809H66.7396C68.5625 26.809 68.9531 27.7205 68.5625 29.0226C66.3515 33.9739 63.616 38.6738 60.4029 43.0418C59.7518 44.04 59.4914 44.5608 60.4029 45.7327C61.0104 46.6442 63.1373 48.4236 64.5695 50.1163C66.6528 52.1944 68.3827 54.5988 69.6909 57.2345C70.2117 58.9272 69.3437 59.7952 67.6075 59.7952V59.7952Z" fill="white"/>
</svg>
