<svg width="92" height="92" viewBox="0 0 92 92" fill="none" xmlns="http://www.w3.org/2000/svg">
<path d="M57.7796 7.58423H34.2604C12.7777 7.58423 7.66669 12.6403 7.66669 33.8524V57.1187C7.66669 78.3702 12.738 83.4265 34.2204 83.4265H57.7396C79.2223 83.4265 84.3334 78.4098 84.3334 57.1581V33.892C84.3334 12.6403 79.2621 7.58423 57.7796 7.58423ZM69.559 61.7008H63.9688C61.8525 61.7008 61.2136 60.0022 57.4202 56.2496C54.1058 53.0896 52.7084 52.6945 51.8698 52.6945C50.7119 52.6945 50.3923 53.0105 50.3923 54.5906V59.5677C50.3923 60.9108 49.9531 61.7008 46.3994 61.7008C42.9509 61.4716 39.6068 60.4352 36.6424 58.6771C33.678 56.919 31.1783 54.4894 29.349 51.5884C25.0062 46.2412 21.9846 39.9653 20.5244 33.2599C20.5244 32.4304 20.8438 31.6798 22.4411 31.6798H28.0313C29.4688 31.6798 29.988 32.3119 30.5469 33.7735C33.2621 41.6737 37.8942 48.5469 39.7709 48.5469C40.4896 48.5469 40.809 48.231 40.809 46.4534V38.316C40.5694 34.603 38.5729 34.2869 38.5729 32.944C38.5992 32.5897 38.7641 32.2595 39.0325 32.0234C39.3009 31.7874 39.6517 31.6641 40.0104 31.6798H48.7952C49.9932 31.6798 50.3923 32.2723 50.3923 33.6944V44.6758C50.3923 45.8609 50.9115 46.2558 51.2709 46.2558C51.9896 46.2558 52.5485 45.8609 53.8663 44.5573C56.6979 41.1413 59.0116 37.3356 60.7344 33.2599C60.9102 32.7695 61.2436 32.3495 61.6834 32.0642C62.1233 31.7789 62.6455 31.6439 63.1703 31.6798H68.7604C70.4375 31.6798 70.7969 32.5093 70.4375 33.6944C68.4034 38.2006 65.8868 42.4781 62.9307 46.4534C62.3317 47.3618 62.0921 47.8359 62.9307 48.9024C63.4896 49.7319 65.4463 51.3514 66.764 52.892C68.6806 54.7832 70.2721 56.9715 71.4756 59.3703C71.9548 60.9108 71.1563 61.7008 69.559 61.7008Z" fill="white"/>
</svg>
